<svg xmlns="http://www.w3.org/2000/svg" viewBox="0 0 171.91 190.49"><defs><style>.cls-1{fill:#f08b30;}.cls-2{fill:#e3e9eb;}</style></defs><g id="Calque_2" data-name="Calque 2"><g id="Calque_1-2" data-name="Calque 1"><path class="cls-1" d="M2.93,52.6H145.16a26.3,26.3,0,0,0,26.29-26.3h0A26.29,26.29,0,0,0,145.16,0H2.93A2.93,2.93,0,0,0,0,2.93V49.66A2.94,2.94,0,0,0,2.93,52.6Z"/><path class="cls-1" d="M2.93,121.54H76a26.3,26.3,0,0,0,26.3-26.3h0A26.3,26.3,0,0,0,76,69h-73A2.93,2.93,0,0,0,0,71.88v46.73A2.93,2.93,0,0,0,2.93,121.54Z"/><path class="cls-1" d="M12,137.89H2.93A2.93,2.93,0,0,0,0,140.82v46.74a2.93,2.93,0,0,0,2.93,2.93H12a26.3,26.3,0,0,0,26.29-26.3h0A26.3,26.3,0,0,0,12,137.89Z"/><path class="cls-2" d="M167,137.89H80.94a26.31,26.31,0,0,0-26.3,26.3h0a26.31,26.31,0,0,0,26.3,26.3h61a29.55,29.55,0,0,0,29.55-29.55v-18.6A4.45,4.45,0,0,0,167,137.89Z"/><rect class="cls-2" x="118.41" y="68.49" width="53.5" height="53.5" rx="26.75"/></g></g></svg>